<svg viewBox="0 0 37 37" fill="currentColor" xmlns="http://www.w3.org/2000/svg">
<path fill-rule="evenodd" clip-rule="evenodd" d="M9.25 0C2.59 0 0 2.59 0 9.25V27.75C0 34.41 2.59 37 9.25 37H27.75C34.41 37 37 34.41 37 27.75V9.25C37 2.59 34.41 0 27.75 0H9.25ZM8.8381 15.0544C5.69854 18.194 5.69854 18.7172 8.8381 21.8568L15.0544 28.0731C18.194 31.2127 18.7172 31.2127 21.8568 28.0731L28.0731 21.8568C31.2127 18.7172 31.2127 18.194 28.0731 15.0544L21.8568 8.8381C18.7172 5.69855 18.194 5.69855 15.0544 8.8381L8.8381 15.0544Z" fill="currentColor"/>
</svg>
